<?xml version="1.0" encoding="UTF-8" standalone="no"?>
<!DOCTYPE svg PUBLIC "-//W3C//DTD SVG 1.0//EN"
 "http://www.w3.org/TR/2001/REC-SVG-20010904/DTD/svg10.dtd">
<!-- Generated by dot version 1.9 (Fri Jan 31 11:51:16 EST 2003)
     For user: Bill Gates   Title: scufl_graph    Pages: 1 -->
<svg width="986px" height="1375px"
 xmlns="http://www.w3.org/2000/svg">
<g id="graph0" class="graph" style="font-family:Times-Roman;font-size:18.67;">
<title>scufl_graph</title>
<g id="graph2" class="cluster"><title>cluster_sources</title>
<polygon style="fill:none;stroke:black;stroke-dasharray:1,5;" points="17,224 348,224 348,120 17,120 17,224"/>
<text text-anchor="middle" x="122" y="136" style="font-family:Courier;font-size:13.33;">Overall workflow inputs</text>
</g>
<g id="graph3" class="cluster"><title>cluster_sinks</title>
<polygon style="fill:none;stroke:black;stroke-dasharray:1,5;" points="357,1354 501,1354 501,1250 357,1250 357,1354"/>
<text text-anchor="middle" x="466" y="1266" style="font-family:Courier;font-size:13.33;">Overall workflow outputs</text>
</g>
<g id="node1" class="node"><title>compare</title>
<ellipse cx="429" cy="1154" rx="41" ry="24" style="fill:#edaeee;stroke:black;"/>
<text text-anchor="middle" x="429" y="1160" style="font-family:Courier;font-size:13.33;">compare</text>
</g>
<g id="node17" class="node"><title>WORKFLOWINTERNALSINK_report</title>
<polygon style="fill:#bcd2ee;stroke:black;" points="429,1284 368,1328 490,1328 429,1284"/>
<text text-anchor="middle" x="429" y="1318" style="font-family:Courier;font-size:13.33;">report</text>
</g>
<g id="edge10" class="edge"><title>compare-&gt;WORKFLOWINTERNALSINK_report</title>
<path style="fill:none;stroke:black;" d="M429,1178C429,1202 429,1240 429,1270"/>
<polygon style="fill:black;stroke:black;" points="433,1269 429,1282 426,1269 433,1269"/>
<text text-anchor="middle" x="460" y="1226" style="font-family:Courier;font-size:13.33;">String</text>
</g>
<g id="node2" class="node"><title>restrict_mutant</title>
<ellipse cx="288" cy="888" rx="74" ry="24" style="fill:lightgoldenrodyellow;stroke:black;"/>
<text text-anchor="middle" x="288" y="893" style="font-family:Courier;font-size:13.33;">restrict_mutant</text>
</g>
<g id="edge4" class="edge"><title>restrict_mutant-&gt;compare</title>
<path style="fill:none;stroke:black;" d="M284,912C281,944 278,1002 300,1045 318,1084 358,1113 389,1133"/>
<polygon style="fill:black;stroke:black;" points="389,1129 398,1138 385,1134 389,1129"/>
<text text-anchor="middle" x="330" y="1026" style="font-family:Courier;font-size:13.33;">String</text>
</g>
<g id="node27" class="node"><title>constrainttestcoordination</title>
<polygon style="fill:white;stroke:gray;" points="485,1010 373,1010 373,1032 485,1032 485,1010"/>
<text text-anchor="middle" x="429" y="1026" style="font-family:Courier;font-size:13.33;">coordination</text>
</g>
<g id="edge28" class="edge"><title>restrict_mutant-&gt;constrainttestcoordination</title>
<path style="fill:none;stroke:gray;" d="M317,916C349,945 396,990 417,1010"/>
<ellipse cx="314" cy="913" rx="4" ry="4" style="fill:gray;stroke:gray;"/>
<text text-anchor="middle" x="422" y="960" style="font-family:Courier;font-size:13.33;fill:brown;">Completed</text>
</g>
<g id="node3" class="node"><title>create_mutant_sequence</title>
<ellipse cx="247" cy="322" rx="105" ry="24" style="fill:#edaeee;stroke:black;"/>
<text text-anchor="middle" x="247" y="328" style="font-family:Courier;font-size:13.33;">create_mutant_sequence</text>
</g>
<g id="edge12" class="edge"><title>create_mutant_sequence-&gt;restrict_mutant</title>
<path style="fill:none;stroke:black;" d="M247,346C249,368 249,400 249,426 249,426 249,426 249,770 249,800 260,832 270,854"/>
<polygon style="fill:black;stroke:black;" points="272,850 274,864 266,853 272,850"/>
<text text-anchor="middle" x="280" y="610" style="font-family:Courier;font-size:13.33;">String</text>
</g>
<g id="node4" class="node"><title>restrictCreateJob</title>
<ellipse cx="681" cy="40" rx="81" ry="24" style="fill:#a3cd5a;stroke:black;"/>
<text text-anchor="middle" x="681" y="45" style="font-family:Courier;font-size:13.33;">restrictCreateJob</text>
</g>
<g id="node5" class="node"><title>restrictSetInput1</title>
<ellipse cx="456" cy="322" rx="78" ry="24" style="fill:#a3cd5a;stroke:black;"/>
<text text-anchor="middle" x="456" y="328" style="font-family:Courier;font-size:13.33;">restrictSetInput1</text>
</g>
<g id="edge14" class="edge"><title>restrictCreateJob-&gt;restrictSetInput1</title>
<path style="fill:none;stroke:black;" d="M637,60C611,73 582,93 563,120 525,178 571,217 531,274 526,282 518,289 512,296"/>
<polygon style="fill:black;stroke:black;" points="514,298 501,302 510,293 514,298"/>
<text text-anchor="middle" x="598" y="188" style="font-family:Courier;font-size:13.33;">string</text>
</g>
<g id="node6" class="node"><title>restrictRun</title>
<ellipse cx="554" cy="546" rx="56" ry="24" style="fill:#a3cd5a;stroke:black;"/>
<text text-anchor="middle" x="554" y="552" style="font-family:Courier;font-size:13.33;">restrictRun</text>
</g>
<g id="edge18" class="edge"><title>restrictCreateJob-&gt;restrictRun</title>
<path style="fill:none;stroke:black;" d="M677,64C670,110 653,212 638,298 625,388 649,420 606,498 602,505 598,512 593,517"/>
<polygon style="fill:black;stroke:black;" points="595,520 583,526 590,514 595,520"/>
<text text-anchor="middle" x="673" y="328" style="font-family:Courier;font-size:13.33;">string</text>
</g>
<g id="node7" class="node"><title>restrictWait</title>
<ellipse cx="653" cy="770" rx="60" ry="24" style="fill:#a3cd5a;stroke:black;"/>
<text text-anchor="middle" x="653" y="776" style="font-family:Courier;font-size:13.33;">restrictWait</text>
</g>
<g id="edge20" class="edge"><title>restrictCreateJob-&gt;restrictWait</title>
<path style="fill:none;stroke:black;" d="M691,64C702,92 718,140 718,182 718,182 718,182 718,650 718,684 721,694 705,722 701,729 697,736 691,741"/>
<polygon style="fill:black;stroke:black;" points="694,742 682,749 690,738 694,742"/>
<text text-anchor="middle" x="749" y="432" style="font-family:Courier;font-size:13.33;">string</text>
</g>
<g id="node8" class="node"><title>restrictGetResults</title>
<ellipse cx="693" cy="1021" rx="84" ry="24" style="fill:#a3cd5a;stroke:black;"/>
<text text-anchor="middle" x="693" y="1026" style="font-family:Courier;font-size:13.33;">restrictGetResults</text>
</g>
<g id="edge22" class="edge"><title>restrictCreateJob-&gt;restrictGetResults</title>
<path style="fill:none;stroke:black;" d="M722,61C778,92 817,112 817,182 817,182 817,182 817,888 817,926 827,944 803,973 795,985 782,994 769,1000"/>
<polygon style="fill:black;stroke:black;" points="771,1002 758,1005 769,996 771,1002"/>
<text text-anchor="middle" x="847" y="552" style="font-family:Courier;font-size:13.33;">string</text>
</g>
<g id="node9" class="node"><title>restrictDeleteJob</title>
<ellipse cx="830" cy="1313" rx="80" ry="24" style="fill:#a3cd5a;stroke:black;"/>
<text text-anchor="middle" x="830" y="1318" style="font-family:Courier;font-size:13.33;">restrictDeleteJob</text>
</g>
<g id="edge24" class="edge"><title>restrictCreateJob-&gt;restrictDeleteJob</title>
<path style="fill:none;stroke:black;" d="M753,52C841,76 917,88 915,182 915,182 915,182 915,1154 917,1193 919,1206 902,1240 894,1256 882,1270 869,1282"/>
<polygon style="fill:black;stroke:black;" points="871,1284 859,1290 867,1280 871,1284"/>
<text text-anchor="middle" x="946" y="656" style="font-family:Courier;font-size:13.33;">string</text>
</g>
<g id="node30" class="node"><title>constraintsetInput1</title>
<polygon style="fill:white;stroke:gray;" points="473,172 361,172 361,193 473,193 473,172"/>
<text text-anchor="middle" x="417" y="188" style="font-family:Courier;font-size:13.33;">coordination</text>
</g>
<g id="edge32" class="edge"><title>restrictCreateJob-&gt;constraintsetInput1</title>
<path style="fill:none;stroke:gray;" d="M594,48C533,54 458,66 436,88 414,110 414,152 416,172"/>
<ellipse cx="598" cy="46" rx="4" ry="4" style="fill:gray;stroke:gray;"/>
<text text-anchor="middle" x="485" y="104" style="font-family:Courier;font-size:13.33;fill:brown;">Completed</text>
</g>
<g id="node33" class="node"><title>constraintwaitForInput1</title>
<polygon style="fill:white;stroke:gray;" points="512,416 400,416 400,437 512,437 512,416"/>
<text text-anchor="middle" x="456" y="432" style="font-family:Courier;font-size:13.33;">coordination</text>
</g>
<g id="edge36" class="edge"><title>restrictSetInput1-&gt;constraintwaitForInput1</title>
<path style="fill:none;stroke:gray;" d="M456,354C456,374 456,401 456,416"/>
<ellipse cx="456" cy="350" rx="4" ry="4" style="fill:gray;stroke:gray;"/>
<text text-anchor="middle" x="501" y="386" style="font-family:Courier;font-size:13.33;fill:brown;">Completed</text>
</g>
<g id="node36" class="node"><title>constraintwaitForExecution</title>
<polygon style="fill:white;stroke:gray;" points="610,640 498,640 498,661 610,661 610,640"/>
<text text-anchor="middle" x="554" y="656" style="font-family:Courier;font-size:13.33;">coordination</text>
</g>
<g id="edge40" class="edge"><title>restrictRun-&gt;constraintwaitForExecution</title>
<path style="fill:none;stroke:gray;" d="M554,578C554,598 554,625 554,640"/>
<ellipse cx="554" cy="574" rx="4" ry="4" style="fill:gray;stroke:gray;"/>
<text text-anchor="middle" x="599" y="610" style="font-family:Courier;font-size:13.33;fill:brown;">Completed</text>
</g>
<g id="node39" class="node"><title>constraintgetResults</title>
<polygon style="fill:white;stroke:gray;" points="709,877 597,877 597,898 709,898 709,877"/>
<text text-anchor="middle" x="653" y="893" style="font-family:Courier;font-size:13.33;">coordination</text>
</g>
<g id="edge44" class="edge"><title>restrictWait-&gt;constraintgetResults</title>
<path style="fill:none;stroke:gray;" d="M653,802C653,828 653,860 653,877"/>
<ellipse cx="653" cy="798" rx="4" ry="4" style="fill:gray;stroke:gray;"/>
<text text-anchor="middle" x="698" y="834" style="font-family:Courier;font-size:13.33;fill:brown;">Completed</text>
</g>
<g id="edge2" class="edge"><title>restrictGetResults-&gt;compare</title>
<path style="fill:none;stroke:black;" d="M662,1044C637,1062 598,1089 561,1106 534,1120 502,1132 477,1140"/>
<polygon style="fill:black;stroke:black;" points="480,1142 466,1144 477,1136 480,1142"/>
<text text-anchor="middle" x="661" y="1093" style="font-family:Courier;font-size:13.33;">string</text>
</g>
<g id="node42" class="node"><title>constraintcleanup</title>
<polygon style="fill:white;stroke:gray;" points="803,1144 691,1144 691,1165 803,1165 803,1144"/>
<text text-anchor="middle" x="747" y="1160" style="font-family:Courier;font-size:13.33;">coordination</text>
</g>
<g id="edge48" class="edge"><title>restrictGetResults-&gt;constraintcleanup</title>
<path style="fill:none;stroke:gray;" d="M705,1052C717,1081 734,1124 743,1144"/>
<ellipse cx="703" cy="1049" rx="4" ry="4" style="fill:gray;stroke:gray;"/>
<text text-anchor="middle" x="773" y="1093" style="font-family:Courier;font-size:13.33;fill:brown;">Completed</text>
</g>
<g id="node12" class="node"><title>WORKFLOWINTERNALSOURCE_snplist</title>
<polygon style="fill:skyblue;stroke:black;" points="270,212 337,168 203,168 270,212"/>
<text text-anchor="middle" x="270" y="188" style="font-family:Courier;font-size:13.33;">snplist</text>
</g>
<g id="edge6" class="edge"><title>WORKFLOWINTERNALSOURCE_snplist-&gt;create_mutant_sequence</title>
<path style="fill:none;stroke:black;" d="M266,209C262,232 257,262 253,286"/>
<polygon style="fill:black;stroke:black;" points="257,285 251,298 250,285 257,285"/>
<text text-anchor="middle" x="294" y="261" style="font-family:Courier;font-size:13.33;">String</text>
</g>
<g id="node14" class="node"><title>WORKFLOWINTERNALSOURCE_sequence</title>
<polygon style="fill:skyblue;stroke:black;" points="104,212 179,168 28,168 104,212"/>
<text text-anchor="middle" x="104" y="188" style="font-family:Courier;font-size:13.33;">sequence</text>
</g>
<g id="edge8" class="edge"><title>WORKFLOWINTERNALSOURCE_sequence-&gt;create_mutant_sequence</title>
<path style="fill:none;stroke:black;" d="M86,202C72,222 55,253 72,274 82,289 113,298 147,306"/>
<polygon style="fill:black;stroke:black;" points="147,302 159,309 146,309 147,302"/>
<text text-anchor="middle" x="102" y="261" style="font-family:Courier;font-size:13.33;">string</text>
</g>
<g id="edge16" class="edge"><title>WORKFLOWINTERNALSOURCE_sequence-&gt;restrictSetInput1</title>
<path style="fill:none;stroke:black;" d="M118,205C133,226 159,258 190,274 261,310 290,278 365,298 370,300 374,301 378,304"/>
<polygon style="fill:black;stroke:black;" points="378,300 389,309 376,306 378,300"/>
<text text-anchor="middle" x="221" y="261" style="font-family:Courier;font-size:13.33;">string</text>
</g>
<g id="edge30" class="edge"><title>constrainttestcoordination-&gt;compare</title>
<path style="fill:none;stroke:gray;" d="M429,1032C429,1050 429,1092 429,1121"/>
<ellipse cx="429" cy="1126" rx="4" ry="4" style="fill:none;stroke:gray;"/>
<text text-anchor="middle" x="493" y="1085" style="font-family:Courier;font-size:13.33;fill:darkgreen;">from:Scheduled</text>
<text text-anchor="middle" x="493" y="1101" style="font-family:Courier;font-size:13.33;fill:darkgreen;">to:Running</text>
</g>
<g id="edge34" class="edge"><title>constraintsetInput1-&gt;restrictSetInput1</title>
<path style="fill:none;stroke:gray;" d="M410,193C402,210 388,248 400,274 404,282 409,289 416,296"/>
<ellipse cx="418" cy="298" rx="4" ry="4" style="fill:none;stroke:gray;"/>
<text text-anchor="middle" x="464" y="253" style="font-family:Courier;font-size:13.33;fill:darkgreen;">from:Scheduled</text>
<text text-anchor="middle" x="464" y="269" style="font-family:Courier;font-size:13.33;fill:darkgreen;">to:Running</text>
</g>
<g id="edge38" class="edge"><title>constraintwaitForInput1-&gt;restrictRun</title>
<path style="fill:none;stroke:gray;" d="M456,437C457,453 461,481 474,498 484,509 496,518 508,526"/>
<ellipse cx="510" cy="528" rx="4" ry="4" style="fill:none;stroke:gray;"/>
<text text-anchor="middle" x="538" y="477" style="font-family:Courier;font-size:13.33;fill:darkgreen;">from:Scheduled</text>
<text text-anchor="middle" x="538" y="493" style="font-family:Courier;font-size:13.33;fill:darkgreen;">to:Running</text>
</g>
<g id="edge42" class="edge"><title>constraintwaitForExecution-&gt;restrictWait</title>
<path style="fill:none;stroke:gray;" d="M554,661C555,677 559,705 573,722 581,733 593,742 605,749"/>
<ellipse cx="607" cy="750" rx="4" ry="4" style="fill:none;stroke:gray;"/>
<text text-anchor="middle" x="637" y="701" style="font-family:Courier;font-size:13.33;fill:darkgreen;">from:Scheduled</text>
<text text-anchor="middle" x="637" y="717" style="font-family:Courier;font-size:13.33;fill:darkgreen;">to:Running</text>
</g>
<g id="edge46" class="edge"><title>constraintgetResults-&gt;restrictGetResults</title>
<path style="fill:none;stroke:gray;" d="M654,898C657,916 663,948 671,973 673,978 675,984 678,989"/>
<ellipse cx="679" cy="993" rx="4" ry="4" style="fill:none;stroke:gray;"/>
<text text-anchor="middle" x="735" y="952" style="font-family:Courier;font-size:13.33;fill:darkgreen;">from:Scheduled</text>
<text text-anchor="middle" x="735" y="968" style="font-family:Courier;font-size:13.33;fill:darkgreen;">to:Running</text>
</g>
<g id="edge50" class="edge"><title>constraintcleanup-&gt;restrictDeleteJob</title>
<path style="fill:none;stroke:gray;" d="M749,1165C751,1182 758,1216 770,1240 778,1256 790,1272 801,1284"/>
<ellipse cx="803" cy="1286" rx="4" ry="4" style="fill:none;stroke:gray;"/>
<text text-anchor="middle" x="834" y="1218" style="font-family:Courier;font-size:13.33;fill:darkgreen;">from:Scheduled</text>
<text text-anchor="middle" x="834" y="1234" style="font-family:Courier;font-size:13.33;fill:darkgreen;">to:Running</text>
</g>
</g></svg>
