<?xml version="1.0" encoding="UTF-8" standalone="no"?>
<!DOCTYPE svg PUBLIC "-//W3C//DTD SVG 1.0//EN"
 "http://www.w3.org/TR/2001/REC-SVG-20010904/DTD/svg10.dtd">
<!-- Generated by dot version 1.9 (Fri Jan 31 11:51:16 EST 2003)
     For user: Bill Gates   Title: scufl_graph    Pages: 1 -->
<svg width="1003px" height="1487px"
 xmlns="http://www.w3.org/2000/svg">
<g id="graph0" class="graph" style="font-family:Times-Roman;font-size:18.67;">
<title>scufl_graph</title>
<g id="graph2" class="cluster"><title>cluster_sources</title>
<polygon style="fill:none;stroke:black;stroke-dasharray:1,5;" points="17,240 348,240 348,136 17,136 17,240"/>
<text text-anchor="middle" x="122" y="152" style="font-family:Courier;font-size:13.33;">Overall workflow inputs</text>
</g>
<g id="graph3" class="cluster"><title>cluster_sinks</title>
<polygon style="fill:none;stroke:black;stroke-dasharray:1,5;" points="376,1466 519,1466 519,1362 376,1362 376,1466"/>
<text text-anchor="middle" x="485" y="1378" style="font-family:Courier;font-size:13.33;">Overall workflow outputs</text>
</g>
<g id="node1" class="node"><title>compare</title>
<polygon style="fill:#edaeee;stroke:black;" points="378,1290 518,1290 518,1226 378,1226 378,1290"/>
<text text-anchor="middle" x="413" y="1242" style="font-family:Courier;font-size:13.33;">report1</text>
<polyline style="fill:none;stroke:black;" points="448,1248 448,1226 "/>
<text text-anchor="middle" x="482" y="1242" style="font-family:Courier;font-size:13.33;">report2</text>
<polyline style="fill:none;stroke:black;" points="378,1248 518,1248 "/>
<text text-anchor="middle" x="448" y="1264" style="font-family:Courier;font-size:13.33;">COMPARE</text>
<polyline style="fill:none;stroke:black;" points="378,1269 518,1269 "/>
<text text-anchor="middle" x="448" y="1285" style="font-family:Courier;font-size:13.33;">output</text>
</g>
<g id="node17" class="node"><title>WORKFLOWINTERNALSINK_report</title>
<polygon style="fill:#bcd2ee;stroke:black;" points="448,1396 386,1440 509,1440 448,1396"/>
<text text-anchor="middle" x="448" y="1430" style="font-family:Courier;font-size:13.33;">report</text>
</g>
<g id="edge10" class="edge"><title>compare-&gt;WORKFLOWINTERNALSINK_report</title>
<path style="fill:none;stroke:black;" d="M448,1290C448,1310 448,1350 448,1381"/>
<polygon style="fill:black;stroke:black;" points="452,1381 448,1394 445,1381 452,1381"/>
<text text-anchor="middle" x="478" y="1338" style="font-family:Courier;font-size:13.33;">String</text>
</g>
<g id="node2" class="node"><title>restrict_mutant</title>
<polygon style="fill:lightgoldenrodyellow;stroke:black;" points="226,992 412,992 412,928 226,928 226,992"/>
<text text-anchor="middle" x="318" y="944" style="font-family:Courier;font-size:13.33;">sequence_direct_data</text>
<polyline style="fill:none;stroke:black;" points="226,949 412,949 "/>
<text text-anchor="middle" x="318" y="965" style="font-family:Courier;font-size:13.33;">RESTRICT_MUTANT</text>
<polyline style="fill:none;stroke:black;" points="226,970 412,970 "/>
<text text-anchor="middle" x="318" y="986" style="font-family:Courier;font-size:13.33;">outfile</text>
</g>
<g id="edge4" class="edge"><title>restrict_mutant-&gt;compare</title>
<path style="fill:none;stroke:black;" d="M373,992C388,997 404,1005 414,1016 465,1066 457,1096 469,1165 473,1182 473,1186 469,1202 468,1210 461,1214 458,1218"/>
<polygon style="fill:black;stroke:black;" points="462,1213 458,1226 456,1213 462,1213"/>
<text text-anchor="middle" x="498" y="1114" style="font-family:Courier;font-size:13.33;">String</text>
</g>
<g id="node27" class="node"><title>constrainttestcoordination</title>
<polygon style="fill:white;stroke:gray;" points="374,1098 262,1098 262,1120 374,1120 374,1098"/>
<text text-anchor="middle" x="318" y="1114" style="font-family:Courier;font-size:13.33;">coordination</text>
</g>
<g id="edge28" class="edge"><title>restrict_mutant-&gt;constrainttestcoordination</title>
<path style="fill:none;stroke:gray;" d="M318,1000C318,1032 318,1077 318,1098"/>
<ellipse cx="318" cy="996" rx="4" ry="4" style="fill:gray;stroke:gray;"/>
<text text-anchor="middle" x="364" y="1040" style="font-family:Courier;font-size:13.33;fill:brown;">Completed</text>
</g>
<g id="node3" class="node"><title>create_mutant_sequence</title>
<polygon style="fill:#edaeee;stroke:black;" points="146,378 361,378 361,314 146,314 146,378"/>
<text text-anchor="middle" x="202" y="330" style="font-family:Courier;font-size:13.33;">sequence</text>
<polyline style="fill:none;stroke:black;" points="260,336 260,314 "/>
<text text-anchor="middle" x="310" y="330" style="font-family:Courier;font-size:13.33;">snplist</text>
<polyline style="fill:none;stroke:black;" points="146,336 361,336 "/>
<text text-anchor="middle" x="253" y="352" style="font-family:Courier;font-size:13.33;">CREATE_MUTANT_SEQUENCE</text>
<polyline style="fill:none;stroke:black;" points="146,357 361,357 "/>
<text text-anchor="middle" x="253" y="373" style="font-family:Courier;font-size:13.33;">mutantsequence</text>
</g>
<g id="edge12" class="edge"><title>create_mutant_sequence-&gt;restrict_mutant</title>
<path style="fill:none;stroke:black;" d="M266,378C285,394 314,425 314,458 314,458 314,458 314,826 314,858 317,896 318,918"/>
<polygon style="fill:black;stroke:black;" points="322,914 318,928 316,914 322,914"/>
<text text-anchor="middle" x="345" y="658" style="font-family:Courier;font-size:13.33;">String</text>
</g>
<g id="node4" class="node"><title>restrictCreateJob</title>
<polygon style="fill:#a3cd5a;stroke:black;" points="617,80 803,80 803,16 617,16 617,80"/>
<text text-anchor="middle" x="710" y="32" style="font-family:Courier;font-size:13.33;"> </text>
<polyline style="fill:none;stroke:black;" points="617,37 803,37 "/>
<text text-anchor="middle" x="710" y="53" style="font-family:Courier;font-size:13.33;">RESTRICTCREATEJOB</text>
<polyline style="fill:none;stroke:black;" points="617,58 803,58 "/>
<text text-anchor="middle" x="710" y="74" style="font-family:Courier;font-size:13.33;">createEmptyJobReturn</text>
</g>
<g id="node5" class="node"><title>restrictSetInput1</title>
<polygon style="fill:#a3cd5a;stroke:black;" points="390,378 543,378 543,314 390,314 390,378"/>
<text text-anchor="middle" x="429" y="330" style="font-family:Courier;font-size:13.33;">value</text>
<polyline style="fill:none;stroke:black;" points="469,336 469,314 "/>
<text text-anchor="middle" x="506" y="330" style="font-family:Courier;font-size:13.33;">jobId</text>
<polyline style="fill:none;stroke:black;" points="390,336 543,336 "/>
<text text-anchor="middle" x="466" y="352" style="font-family:Courier;font-size:13.33;">RESTRICTSETINPUT1</text>
<polyline style="fill:none;stroke:black;" points="390,357 543,357 "/>
<text text-anchor="middle" x="466" y="373" style="font-family:Courier;font-size:13.33;"> </text>
</g>
<g id="edge14" class="edge"><title>restrictCreateJob-&gt;restrictSetInput1</title>
<path style="fill:none;stroke:black;" d="M682,80C657,90 623,109 605,136 566,194 615,236 573,290 567,297 561,304 553,308"/>
<polygon style="fill:black;stroke:black;" points="554,310 541,314 551,305 554,310"/>
<text text-anchor="middle" x="639" y="204" style="font-family:Courier;font-size:13.33;">string</text>
</g>
<g id="node6" class="node"><title>restrictRun</title>
<polygon style="fill:#a3cd5a;stroke:black;" points="517,618 626,618 626,554 517,554 517,618"/>
<text text-anchor="middle" x="571" y="570" style="font-family:Courier;font-size:13.33;">in0</text>
<polyline style="fill:none;stroke:black;" points="517,576 626,576 "/>
<text text-anchor="middle" x="571" y="592" style="font-family:Courier;font-size:13.33;">RESTRICTRUN</text>
<polyline style="fill:none;stroke:black;" points="517,597 626,597 "/>
<text text-anchor="middle" x="571" y="613" style="font-family:Courier;font-size:13.33;"> </text>
</g>
<g id="edge18" class="edge"><title>restrictCreateJob-&gt;restrictRun</title>
<path style="fill:none;stroke:black;" d="M707,80C697,125 659,292 655,314 638,410 675,449 623,530 619,537 613,542 607,548"/>
<polygon style="fill:black;stroke:black;" points="610,550 597,554 606,545 610,550"/>
<text text-anchor="middle" x="690" y="352" style="font-family:Courier;font-size:13.33;">string</text>
</g>
<g id="node7" class="node"><title>restrictWait</title>
<polygon style="fill:#a3cd5a;stroke:black;" points="613,858 729,858 729,794 613,794 613,858"/>
<text text-anchor="middle" x="670" y="810" style="font-family:Courier;font-size:13.33;">in0</text>
<polyline style="fill:none;stroke:black;" points="613,816 729,816 "/>
<text text-anchor="middle" x="670" y="832" style="font-family:Courier;font-size:13.33;">RESTRICTWAIT</text>
<polyline style="fill:none;stroke:black;" points="613,837 729,837 "/>
<text text-anchor="middle" x="670" y="853" style="font-family:Courier;font-size:13.33;"> </text>
</g>
<g id="edge20" class="edge"><title>restrictCreateJob-&gt;restrictWait</title>
<path style="fill:none;stroke:black;" d="M714,80C717,88 719,96 721,104 731,146 735,157 735,198 735,198 735,198 735,698 735,732 741,744 722,770 718,777 711,782 706,788"/>
<polygon style="fill:black;stroke:black;" points="709,790 695,794 705,785 709,790"/>
<text text-anchor="middle" x="766" y="464" style="font-family:Courier;font-size:13.33;">string</text>
</g>
<g id="node8" class="node"><title>restrictGetResults</title>
<polygon style="fill:#a3cd5a;stroke:black;" points="658,1141 825,1141 825,1077 658,1077 658,1141"/>
<text text-anchor="middle" x="741" y="1093" style="font-family:Courier;font-size:13.33;">jobId</text>
<polyline style="fill:none;stroke:black;" points="658,1098 825,1098 "/>
<text text-anchor="middle" x="741" y="1114" style="font-family:Courier;font-size:13.33;">RESTRICTGETRESULTS</text>
<polyline style="fill:none;stroke:black;" points="658,1120 825,1120 "/>
<text text-anchor="middle" x="741" y="1136" style="font-family:Courier;font-size:13.33;">get_outfileReturn</text>
</g>
<g id="edge22" class="edge"><title>restrictCreateJob-&gt;restrictGetResults</title>
<path style="fill:none;stroke:black;" d="M733,80C769,98 834,141 834,198 834,198 834,198 834,960 834,1002 847,1021 821,1053 815,1060 809,1066 801,1070"/>
<polygon style="fill:black;stroke:black;" points="802,1073 789,1077 799,1068 802,1073"/>
<text text-anchor="middle" x="865" y="592" style="font-family:Courier;font-size:13.33;">string</text>
</g>
<g id="node9" class="node"><title>restrictDeleteJob</title>
<polygon style="fill:#a3cd5a;stroke:black;" points="765,1457 923,1457 923,1393 765,1393 765,1457"/>
<text text-anchor="middle" x="843" y="1409" style="font-family:Courier;font-size:13.33;">in0</text>
<polyline style="fill:none;stroke:black;" points="765,1414 923,1414 "/>
<text text-anchor="middle" x="843" y="1430" style="font-family:Courier;font-size:13.33;">RESTRICTDELETEJOB</text>
<polyline style="fill:none;stroke:black;" points="765,1436 923,1436 "/>
<text text-anchor="middle" x="843" y="1452" style="font-family:Courier;font-size:13.33;"> </text>
</g>
<g id="edge24" class="edge"><title>restrictCreateJob-&gt;restrictDeleteJob</title>
<path style="fill:none;stroke:black;" d="M779,80C845,94 934,128 933,198 933,198 933,198 933,1258 934,1301 942,1317 919,1352 910,1366 895,1378 881,1388"/>
<polygon style="fill:black;stroke:black;" points="883,1390 870,1393 881,1384 883,1390"/>
<text text-anchor="middle" x="963" y="704" style="font-family:Courier;font-size:13.33;">string</text>
</g>
<g id="node30" class="node"><title>constraintsetInput1</title>
<polygon style="fill:white;stroke:gray;" points="496,188 384,188 384,209 496,209 496,188"/>
<text text-anchor="middle" x="440" y="204" style="font-family:Courier;font-size:13.33;">coordination</text>
</g>
<g id="edge32" class="edge"><title>restrictCreateJob-&gt;constraintsetInput1</title>
<path style="fill:none;stroke:gray;" d="M609,81C554,93 523,66 477,104 452,125 444,168 441,188"/>
<ellipse cx="613" cy="80" rx="4" ry="4" style="fill:gray;stroke:gray;"/>
<text text-anchor="middle" x="526" y="120" style="font-family:Courier;font-size:13.33;fill:brown;">Completed</text>
</g>
<g id="node33" class="node"><title>constraintwaitForInput1</title>
<polygon style="fill:white;stroke:gray;" points="526,448 414,448 414,469 526,469 526,448"/>
<text text-anchor="middle" x="470" y="464" style="font-family:Courier;font-size:13.33;">coordination</text>
</g>
<g id="edge36" class="edge"><title>restrictSetInput1-&gt;constraintwaitForInput1</title>
<path style="fill:none;stroke:gray;" d="M468,385C469,408 469,433 470,448"/>
<ellipse cx="468" cy="382" rx="4" ry="4" style="fill:gray;stroke:gray;"/>
<text text-anchor="middle" x="516" y="418" style="font-family:Courier;font-size:13.33;fill:brown;">Completed</text>
</g>
<g id="node36" class="node"><title>constraintwaitForExecution</title>
<polygon style="fill:white;stroke:gray;" points="627,688 516,688 516,709 627,709 627,688"/>
<text text-anchor="middle" x="571" y="704" style="font-family:Courier;font-size:13.33;">coordination</text>
</g>
<g id="edge40" class="edge"><title>restrictRun-&gt;constraintwaitForExecution</title>
<path style="fill:none;stroke:gray;" d="M571,626C571,648 571,673 571,688"/>
<ellipse cx="571" cy="622" rx="4" ry="4" style="fill:gray;stroke:gray;"/>
<text text-anchor="middle" x="617" y="658" style="font-family:Courier;font-size:13.33;fill:brown;">Completed</text>
</g>
<g id="node39" class="node"><title>constraintgetResults</title>
<polygon style="fill:white;stroke:gray;" points="726,949 614,949 614,970 726,970 726,949"/>
<text text-anchor="middle" x="670" y="965" style="font-family:Courier;font-size:13.33;">coordination</text>
</g>
<g id="edge44" class="edge"><title>restrictWait-&gt;constraintgetResults</title>
<path style="fill:none;stroke:gray;" d="M670,866C670,894 670,930 670,949"/>
<ellipse cx="670" cy="862" rx="4" ry="4" style="fill:gray;stroke:gray;"/>
<text text-anchor="middle" x="715" y="898" style="font-family:Courier;font-size:13.33;fill:brown;">Completed</text>
</g>
<g id="edge2" class="edge"><title>restrictGetResults-&gt;compare</title>
<path style="fill:none;stroke:black;" d="M707,1141C649,1160 525,1201 458,1222"/>
<polygon style="fill:black;stroke:black;" points="460,1225 446,1226 458,1218 460,1225"/>
<text text-anchor="middle" x="671" y="1189" style="font-family:Courier;font-size:13.33;">string</text>
</g>
<g id="node42" class="node"><title>constraintcleanup</title>
<polygon style="fill:white;stroke:gray;" points="802,1248 690,1248 690,1269 802,1269 802,1248"/>
<text text-anchor="middle" x="746" y="1264" style="font-family:Courier;font-size:13.33;">coordination</text>
</g>
<g id="edge48" class="edge"><title>restrictGetResults-&gt;constraintcleanup</title>
<path style="fill:none;stroke:gray;" d="M742,1148C743,1180 745,1226 746,1248"/>
<ellipse cx="742" cy="1145" rx="4" ry="4" style="fill:gray;stroke:gray;"/>
<text text-anchor="middle" x="791" y="1189" style="font-family:Courier;font-size:13.33;fill:brown;">Completed</text>
</g>
<g id="node12" class="node"><title>WORKFLOWINTERNALSOURCE_snplist</title>
<polygon style="fill:skyblue;stroke:black;" points="94,228 161,184 28,184 94,228"/>
<text text-anchor="middle" x="94" y="204" style="font-family:Courier;font-size:13.33;">snplist</text>
</g>
<g id="edge6" class="edge"><title>WORKFLOWINTERNALSOURCE_snplist-&gt;create_mutant_sequence</title>
<path style="fill:none;stroke:black;" d="M104,222C112,244 126,272 146,290 169,310 179,308 207,314 215,317 230,318 245,320"/>
<polygon style="fill:black;stroke:black;" points="246,317 260,321 246,324 246,317"/>
<text text-anchor="middle" x="177" y="277" style="font-family:Courier;font-size:13.33;">String</text>
</g>
<g id="node14" class="node"><title>WORKFLOWINTERNALSOURCE_sequence</title>
<polygon style="fill:skyblue;stroke:black;" points="261,228 337,184 185,184 261,228"/>
<text text-anchor="middle" x="261" y="204" style="font-family:Courier;font-size:13.33;">sequence</text>
</g>
<g id="edge8" class="edge"><title>WORKFLOWINTERNALSOURCE_sequence-&gt;create_mutant_sequence</title>
<path style="fill:none;stroke:black;" d="M245,218C237,229 229,241 222,253 214,270 210,289 207,304"/>
<polygon style="fill:black;stroke:black;" points="211,302 205,314 205,301 211,302"/>
<text text-anchor="middle" x="257" y="277" style="font-family:Courier;font-size:13.33;">string</text>
</g>
<g id="edge16" class="edge"><title>WORKFLOWINTERNALSOURCE_sequence-&gt;restrictSetInput1</title>
<path style="fill:none;stroke:black;" d="M266,225C269,230 270,236 274,240 292,260 352,290 393,309"/>
<polygon style="fill:black;stroke:black;" points="394,306 405,314 392,312 394,306"/>
<text text-anchor="middle" x="384" y="277" style="font-family:Courier;font-size:13.33;">string</text>
</g>
<g id="edge30" class="edge"><title>constrainttestcoordination-&gt;compare</title>
<path style="fill:none;stroke:gray;" d="M317,1120C317,1138 318,1178 337,1202 341,1206 354,1214 370,1222"/>
<ellipse cx="374" cy="1225" rx="4" ry="4" style="fill:none;stroke:gray;"/>
<text text-anchor="middle" x="401" y="1181" style="font-family:Courier;font-size:13.33;fill:darkgreen;">from:Scheduled</text>
<text text-anchor="middle" x="401" y="1197" style="font-family:Courier;font-size:13.33;fill:darkgreen;">to:Running</text>
</g>
<g id="edge34" class="edge"><title>constraintsetInput1-&gt;restrictSetInput1</title>
<path style="fill:none;stroke:gray;" d="M438,209C437,228 436,262 441,290 442,296 444,301 446,306"/>
<ellipse cx="448" cy="310" rx="4" ry="4" style="fill:none;stroke:gray;"/>
<text text-anchor="middle" x="505" y="269" style="font-family:Courier;font-size:13.33;fill:darkgreen;">from:Scheduled</text>
<text text-anchor="middle" x="505" y="285" style="font-family:Courier;font-size:13.33;fill:darkgreen;">to:Running</text>
</g>
<g id="edge38" class="edge"><title>constraintwaitForInput1-&gt;restrictRun</title>
<path style="fill:none;stroke:gray;" d="M472,469C473,484 478,512 492,530 494,536 504,542 513,549"/>
<ellipse cx="517" cy="552" rx="4" ry="4" style="fill:none;stroke:gray;"/>
<text text-anchor="middle" x="555" y="509" style="font-family:Courier;font-size:13.33;fill:darkgreen;">from:Scheduled</text>
<text text-anchor="middle" x="555" y="525" style="font-family:Courier;font-size:13.33;fill:darkgreen;">to:Running</text>
</g>
<g id="edge42" class="edge"><title>constraintwaitForExecution-&gt;restrictWait</title>
<path style="fill:none;stroke:gray;" d="M571,709C573,724 577,752 590,770 595,777 601,784 607,789"/>
<ellipse cx="610" cy="792" rx="4" ry="4" style="fill:none;stroke:gray;"/>
<text text-anchor="middle" x="654" y="749" style="font-family:Courier;font-size:13.33;fill:darkgreen;">from:Scheduled</text>
<text text-anchor="middle" x="654" y="765" style="font-family:Courier;font-size:13.33;fill:darkgreen;">to:Running</text>
</g>
<g id="edge46" class="edge"><title>constraintgetResults-&gt;restrictGetResults</title>
<path style="fill:none;stroke:gray;" d="M670,970C671,989 675,1026 689,1053 691,1058 695,1065 701,1070"/>
<ellipse cx="702" cy="1073" rx="4" ry="4" style="fill:none;stroke:gray;"/>
<text text-anchor="middle" x="753" y="1032" style="font-family:Courier;font-size:13.33;fill:darkgreen;">from:Scheduled</text>
<text text-anchor="middle" x="753" y="1048" style="font-family:Courier;font-size:13.33;fill:darkgreen;">to:Running</text>
</g>
<g id="edge50" class="edge"><title>constraintcleanup-&gt;restrictDeleteJob</title>
<path style="fill:none;stroke:gray;" d="M750,1269C757,1288 771,1324 787,1352 794,1364 803,1377 811,1388"/>
<ellipse cx="814" cy="1390" rx="4" ry="4" style="fill:none;stroke:gray;"/>
<text text-anchor="middle" x="851" y="1330" style="font-family:Courier;font-size:13.33;fill:darkgreen;">from:Scheduled</text>
<text text-anchor="middle" x="851" y="1346" style="font-family:Courier;font-size:13.33;fill:darkgreen;">to:Running</text>
</g>
</g></svg>
