<?xml version="1.0" encoding="UTF-8" standalone="no"?>
<!DOCTYPE svg PUBLIC "-//W3C//DTD SVG 1.0//EN"
 "http://www.w3.org/TR/2001/REC-SVG-20010904/DTD/svg10.dtd">
<!-- Generated by dot version 1.9 (Fri Jan 31 11:51:16 EST 2003)
     For user: Bill Gates   Title: scufl_graph    Pages: 1 -->
<svg width="3503px" height="1131px"
 xmlns="http://www.w3.org/2000/svg">
<g id="graph0" class="graph" style="font-family:Times-Roman;font-size:18.67;">
<title>scufl_graph</title>
<g id="graph2" class="cluster"><title>cluster_sources</title>
<polygon style="fill:none;stroke:black;stroke-dasharray:1,5;" points="353,558 550,558 550,396 353,396 353,558"/>
<text text-anchor="middle" x="458" y="390" style="font-family:Courier;font-size:13.33;">Overall workflow inputs</text>
</g>
<g id="graph3" class="cluster"><title>cluster_sinks</title>
<polygon style="fill:none;stroke:black;stroke-dasharray:1,5;" points="3275,384 3443,384 3443,304 3275,304 3275,384"/>
<text text-anchor="middle" x="3385" y="298" style="font-family:Courier;font-size:13.33;">Overall workflow outputs</text>
</g>
<g id="node1" class="node"><title>compare</title>
<polygon style="fill:#edaeee;stroke:black;" points="2978,365 3113,365 3113,301 2978,301 2978,365"/>
<text text-anchor="middle" x="3045" y="317" style="font-family:Courier;font-size:13.33;">COMPARE</text>
<polyline style="fill:none;stroke:black;" points="2978,322 3113,322 "/>
<text text-anchor="middle" x="3013" y="338" style="font-family:Courier;font-size:13.33;">report1</text>
<polyline style="fill:none;stroke:black;" points="2978,344 3049,344 "/>
<text text-anchor="middle" x="3013" y="360" style="font-family:Courier;font-size:13.33;">report2</text>
<polyline style="fill:none;stroke:black;" points="3049,365 3049,322 "/>
<text text-anchor="middle" x="3081" y="349" style="font-family:Courier;font-size:13.33;">output</text>
</g>
<g id="node17" class="node"><title>WORKFLOWINTERNALSINK_report</title>
<polygon style="fill:#bcd2ee;stroke:black;" points="3370,314 3309,358 3431,358 3370,314"/>
<text text-anchor="middle" x="3370" y="349" style="font-family:Courier;font-size:13.33;">report</text>
</g>
<g id="edge10" class="edge"><title>compare-&gt;WORKFLOWINTERNALSINK_report</title>
<path style="fill:none;stroke:black;" d="M3113,344C3162,344 3255,344 3315,344"/>
<polygon style="fill:black;stroke:black;" points="3315,340 3329,344 3315,346 3315,340"/>
<text text-anchor="middle" x="3201" y="338" style="font-family:Courier;font-size:13.33;">String</text>
</g>
<g id="node2" class="node"><title>restrict_mutant</title>
<polygon style="fill:lightgoldenrodyellow;stroke:black;" points="2159,581 2414,581 2414,5 2159,5 2159,581"/>
<text text-anchor="middle" x="2286" y="21" style="font-family:Courier;font-size:13.33;">RESTRICT_MUTANT</text>
<polyline style="fill:none;stroke:black;" points="2159,26 2414,26 "/>
<text text-anchor="middle" x="2251" y="42" style="font-family:Courier;font-size:13.33;">sequence_usa</text>
<polyline style="fill:none;stroke:black;" points="2159,48 2345,48 "/>
<text text-anchor="middle" x="2251" y="64" style="font-family:Courier;font-size:13.33;">sequence_direct_data</text>
<polyline style="fill:none;stroke:black;" points="2159,69 2345,69 "/>
<text text-anchor="middle" x="2251" y="85" style="font-family:Courier;font-size:13.33;">sformat</text>
<polyline style="fill:none;stroke:black;" points="2159,90 2345,90 "/>
<text text-anchor="middle" x="2251" y="106" style="font-family:Courier;font-size:13.33;">sbegin</text>
<polyline style="fill:none;stroke:black;" points="2159,112 2345,112 "/>
<text text-anchor="middle" x="2251" y="128" style="font-family:Courier;font-size:13.33;">send</text>
<polyline style="fill:none;stroke:black;" points="2159,133 2345,133 "/>
<text text-anchor="middle" x="2251" y="149" style="font-family:Courier;font-size:13.33;">sprotein</text>
<polyline style="fill:none;stroke:black;" points="2159,154 2345,154 "/>
<text text-anchor="middle" x="2251" y="170" style="font-family:Courier;font-size:13.33;">snucleotide</text>
<polyline style="fill:none;stroke:black;" points="2159,176 2345,176 "/>
<text text-anchor="middle" x="2251" y="192" style="font-family:Courier;font-size:13.33;">sreverse</text>
<polyline style="fill:none;stroke:black;" points="2159,197 2345,197 "/>
<text text-anchor="middle" x="2251" y="213" style="font-family:Courier;font-size:13.33;">slower</text>
<polyline style="fill:none;stroke:black;" points="2159,218 2345,218 "/>
<text text-anchor="middle" x="2251" y="234" style="font-family:Courier;font-size:13.33;">supper</text>
<polyline style="fill:none;stroke:black;" points="2159,240 2345,240 "/>
<text text-anchor="middle" x="2251" y="256" style="font-family:Courier;font-size:13.33;">sitelen</text>
<polyline style="fill:none;stroke:black;" points="2159,261 2345,261 "/>
<text text-anchor="middle" x="2251" y="277" style="font-family:Courier;font-size:13.33;">enzymes</text>
<polyline style="fill:none;stroke:black;" points="2159,282 2345,282 "/>
<text text-anchor="middle" x="2251" y="298" style="font-family:Courier;font-size:13.33;">min</text>
<polyline style="fill:none;stroke:black;" points="2159,304 2345,304 "/>
<text text-anchor="middle" x="2251" y="320" style="font-family:Courier;font-size:13.33;">max</text>
<polyline style="fill:none;stroke:black;" points="2159,325 2345,325 "/>
<text text-anchor="middle" x="2251" y="341" style="font-family:Courier;font-size:13.33;">single</text>
<polyline style="fill:none;stroke:black;" points="2159,346 2345,346 "/>
<text text-anchor="middle" x="2251" y="362" style="font-family:Courier;font-size:13.33;">blunt</text>
<polyline style="fill:none;stroke:black;" points="2159,368 2345,368 "/>
<text text-anchor="middle" x="2251" y="384" style="font-family:Courier;font-size:13.33;">sticky</text>
<polyline style="fill:none;stroke:black;" points="2159,389 2345,389 "/>
<text text-anchor="middle" x="2251" y="405" style="font-family:Courier;font-size:13.33;">ambiguity</text>
<polyline style="fill:none;stroke:black;" points="2159,410 2345,410 "/>
<text text-anchor="middle" x="2251" y="426" style="font-family:Courier;font-size:13.33;">plasmid</text>
<polyline style="fill:none;stroke:black;" points="2159,432 2345,432 "/>
<text text-anchor="middle" x="2251" y="448" style="font-family:Courier;font-size:13.33;">commercial</text>
<polyline style="fill:none;stroke:black;" points="2159,453 2345,453 "/>
<text text-anchor="middle" x="2251" y="469" style="font-family:Courier;font-size:13.33;">datafile</text>
<polyline style="fill:none;stroke:black;" points="2159,474 2345,474 "/>
<text text-anchor="middle" x="2251" y="490" style="font-family:Courier;font-size:13.33;">limit</text>
<polyline style="fill:none;stroke:black;" points="2159,496 2345,496 "/>
<text text-anchor="middle" x="2251" y="512" style="font-family:Courier;font-size:13.33;">preferred</text>
<polyline style="fill:none;stroke:black;" points="2159,517 2345,517 "/>
<text text-anchor="middle" x="2251" y="533" style="font-family:Courier;font-size:13.33;">alphabetic</text>
<polyline style="fill:none;stroke:black;" points="2159,538 2345,538 "/>
<text text-anchor="middle" x="2251" y="554" style="font-family:Courier;font-size:13.33;">fragments</text>
<polyline style="fill:none;stroke:black;" points="2159,560 2345,560 "/>
<text text-anchor="middle" x="2251" y="576" style="font-family:Courier;font-size:13.33;">name</text>
<polyline style="fill:none;stroke:black;" points="2345,581 2345,26 "/>
<text text-anchor="middle" x="2379" y="309" style="font-family:Courier;font-size:13.33;">outfile</text>
</g>
<g id="edge4" class="edge"><title>restrict_mutant-&gt;compare</title>
<path style="fill:none;stroke:black;" d="M2414,310C2455,318 2529,332 2590,337 2629,341 2862,338 2966,346"/>
<polygon style="fill:black;stroke:black;" points="2965,342 2978,348 2965,349 2965,342"/>
<text text-anchor="middle" x="2695" y="332" style="font-family:Courier;font-size:13.33;">String</text>
</g>
<g id="node27" class="node"><title>constrainttestcoordination</title>
<polygon style="fill:white;stroke:gray;" points="2751,282 2639,282 2639,304 2751,304 2751,282"/>
<text text-anchor="middle" x="2695" y="298" style="font-family:Courier;font-size:13.33;">coordination</text>
</g>
<g id="edge28" class="edge"><title>restrict_mutant-&gt;constrainttestcoordination</title>
<path style="fill:none;stroke:gray;" d="M2421,293C2495,293 2582,293 2639,293"/>
<ellipse cx="2418" cy="293" rx="4" ry="4" style="fill:gray;stroke:gray;"/>
<text text-anchor="middle" x="2502" y="288" style="font-family:Courier;font-size:13.33;fill:brown;">Completed</text>
</g>
<g id="node3" class="node"><title>create_mutant_sequence</title>
<polygon style="fill:#edaeee;stroke:black;" points="715,446 939,446 939,382 715,382 715,446"/>
<text text-anchor="middle" x="827" y="398" style="font-family:Courier;font-size:13.33;">CREATE_MUTANT_SEQUENCE</text>
<polyline style="fill:none;stroke:black;" points="715,404 939,404 "/>
<text text-anchor="middle" x="755" y="420" style="font-family:Courier;font-size:13.33;">sequence</text>
<polyline style="fill:none;stroke:black;" points="715,425 795,425 "/>
<text text-anchor="middle" x="755" y="441" style="font-family:Courier;font-size:13.33;">snplist</text>
<polyline style="fill:none;stroke:black;" points="795,446 795,404 "/>
<text text-anchor="middle" x="867" y="420" style="font-family:Courier;font-size:13.33;">originalsequence</text>
<polyline style="fill:none;stroke:black;" points="795,425 939,425 "/>
<text text-anchor="middle" x="867" y="441" style="font-family:Courier;font-size:13.33;">mutantsequence</text>
</g>
<g id="edge12" class="edge"><title>create_mutant_sequence-&gt;restrict_mutant</title>
<path style="fill:none;stroke:black;" d="M895,425C909,420 926,412 939,404 1034,346 1025,250 1134,250 1134,250 1134,250 1961,250 2085,250 2195,130 2237,80"/>
<polygon style="fill:black;stroke:black;" points="2234,77 2245,69 2239,81 2234,77"/>
<text text-anchor="middle" x="1545" y="245" style="font-family:Courier;font-size:13.33;">String</text>
</g>
<g id="node4" class="node"><title>restrictCreateJob</title>
<polygon style="fill:#a3cd5a;stroke:black;" points="17,964 227,964 227,916 17,916 17,964"/>
<text text-anchor="middle" x="122" y="933" style="font-family:Courier;font-size:13.33;">RESTRICTCREATEJOB</text>
<polyline style="fill:none;stroke:black;" points="17,940 227,940 "/>
<text text-anchor="middle" x="29" y="957" style="font-family:Courier;font-size:13.33;"> </text>
<polyline style="fill:none;stroke:black;" points="41,964 41,940 "/>
<text text-anchor="middle" x="134" y="957" style="font-family:Courier;font-size:13.33;">createEmptyJobReturn</text>
</g>
<g id="node5" class="node"><title>restrictSetInput1</title>
<polygon style="fill:#a3cd5a;stroke:black;" points="751,856 905,856 905,792 751,792 751,856"/>
<text text-anchor="middle" x="827" y="808" style="font-family:Courier;font-size:13.33;">RESTRICTSETINPUT1</text>
<polyline style="fill:none;stroke:black;" points="751,813 905,813 "/>
<text text-anchor="middle" x="797" y="829" style="font-family:Courier;font-size:13.33;">value</text>
<polyline style="fill:none;stroke:black;" points="751,834 843,834 "/>
<text text-anchor="middle" x="797" y="850" style="font-family:Courier;font-size:13.33;">jobId</text>
<polyline style="fill:none;stroke:black;" points="843,856 843,813 "/>
<text text-anchor="middle" x="874" y="840" style="font-family:Courier;font-size:13.33;"> </text>
</g>
<g id="edge14" class="edge"><title>restrictCreateJob-&gt;restrictSetInput1</title>
<path style="fill:none;stroke:black;" d="M209,940C293,926 432,904 550,884 625,870 642,866 715,856 723,854 730,853 738,852"/>
<polygon style="fill:black;stroke:black;" points="738,849 751,850 738,854 738,849"/>
<text text-anchor="middle" x="462" y="878" style="font-family:Courier;font-size:13.33;">string</text>
</g>
<g id="node6" class="node"><title>restrictRun</title>
<polygon style="fill:#a3cd5a;stroke:black;" points="1366,940 1476,940 1476,892 1366,892 1366,940"/>
<text text-anchor="middle" x="1421" y="909" style="font-family:Courier;font-size:13.33;">RESTRICTRUN</text>
<polyline style="fill:none;stroke:black;" points="1366,916 1476,916 "/>
<text text-anchor="middle" x="1396" y="933" style="font-family:Courier;font-size:13.33;">in0</text>
<polyline style="fill:none;stroke:black;" points="1426,940 1426,916 "/>
<text text-anchor="middle" x="1450" y="933" style="font-family:Courier;font-size:13.33;"> </text>
</g>
<g id="edge18" class="edge"><title>restrictCreateJob-&gt;restrictRun</title>
<path style="fill:none;stroke:black;" d="M154,940C191,928 203,934 241,933 245,932 246,930 249,933 254,936 249,941 251,945 321,1009 368,977 462,977 462,977 462,977 1134,977 1213,977 1301,956 1353,941"/>
<polygon style="fill:black;stroke:black;" points="1353,937 1366,937 1354,944 1353,937"/>
<text text-anchor="middle" x="827" y="972" style="font-family:Courier;font-size:13.33;">string</text>
</g>
<g id="node7" class="node"><title>restrictWait</title>
<polygon style="fill:#a3cd5a;stroke:black;" points="1904,804 2020,804 2020,756 1904,756 1904,804"/>
<text text-anchor="middle" x="1961" y="773" style="font-family:Courier;font-size:13.33;">RESTRICTWAIT</text>
<polyline style="fill:none;stroke:black;" points="1904,780 2020,780 "/>
<text text-anchor="middle" x="1936" y="797" style="font-family:Courier;font-size:13.33;">in0</text>
<polyline style="fill:none;stroke:black;" points="1968,804 1968,780 "/>
<text text-anchor="middle" x="1993" y="797" style="font-family:Courier;font-size:13.33;"> </text>
</g>
<g id="edge20" class="edge"><title>restrictCreateJob-&gt;restrictWait</title>
<path style="fill:none;stroke:black;" d="M147,940C150,938 151,937 154,936 163,930 166,932 175,932 401,912 989,985 1190,884 1206,876 1200,861 1214,854 1364,777 1424,841 1590,828 1698,818 1825,804 1890,797"/>
<polygon style="fill:black;stroke:black;" points="1890,794 1904,796 1890,800 1890,794"/>
<text text-anchor="middle" x="1134" y="878" style="font-family:Courier;font-size:13.33;">string</text>
</g>
<g id="node8" class="node"><title>restrictGetResults</title>
<polygon style="fill:#a3cd5a;stroke:black;" points="2591,657 2801,657 2801,609 2591,609 2591,657"/>
<text text-anchor="middle" x="2695" y="626" style="font-family:Courier;font-size:13.33;">RESTRICTGETRESULTS</text>
<polyline style="fill:none;stroke:black;" points="2591,633 2801,633 "/>
<text text-anchor="middle" x="2617" y="650" style="font-family:Courier;font-size:13.33;">jobId</text>
<polyline style="fill:none;stroke:black;" points="2643,657 2643,633 "/>
<text text-anchor="middle" x="2722" y="650" style="font-family:Courier;font-size:13.33;">get_outfileReturn</text>
</g>
<g id="edge22" class="edge"><title>restrictCreateJob-&gt;restrictGetResults</title>
<path style="fill:none;stroke:black;" d="M149,940C151,938 153,938 154,937 185,921 203,938 227,916 250,894 234,876 251,850 322,749 340,670 462,670 462,670 462,670 2286,670 2391,670 2517,657 2579,650"/>
<polygon style="fill:black;stroke:black;" points="2578,648 2591,649 2578,654 2578,648"/>
<text text-anchor="middle" x="1421" y="665" style="font-family:Courier;font-size:13.33;">string</text>
</g>
<g id="node9" class="node"><title>restrictDeleteJob</title>
<polygon style="fill:#a3cd5a;stroke:black;" points="3291,1030 3450,1030 3450,982 3291,982 3291,1030"/>
<text text-anchor="middle" x="3370" y="1000" style="font-family:Courier;font-size:13.33;">RESTRICTDELETEJOB</text>
<polyline style="fill:none;stroke:black;" points="3291,1006 3450,1006 "/>
<text text-anchor="middle" x="3334" y="1024" style="font-family:Courier;font-size:13.33;">in0</text>
<polyline style="fill:none;stroke:black;" points="3377,1030 3377,1006 "/>
<text text-anchor="middle" x="3413" y="1024" style="font-family:Courier;font-size:13.33;"> </text>
</g>
<g id="edge24" class="edge"><title>restrictCreateJob-&gt;restrictDeleteJob</title>
<path style="fill:none;stroke:black;" d="M227,964C342,1001 344,1097 462,1097 462,1097 462,1097 3045,1097 3153,1097 3173,1056 3275,1030 3277,1030 3278,1030 3278,1029"/>
<polygon style="fill:black;stroke:black;" points="3278,1026 3291,1026 3279,1032 3278,1026"/>
<text text-anchor="middle" x="1670" y="1092" style="font-family:Courier;font-size:13.33;">string</text>
</g>
<g id="node30" class="node"><title>constraintsetInput1</title>
<polygon style="fill:white;stroke:gray;" points="518,829 406,829 406,850 518,850 518,829"/>
<text text-anchor="middle" x="462" y="845" style="font-family:Courier;font-size:13.33;">coordination</text>
</g>
<g id="edge32" class="edge"><title>restrictCreateJob-&gt;constraintsetInput1</title>
<path style="fill:none;stroke:gray;" d="M234,913C241,912 243,910 251,908 314,886 386,864 428,850"/>
<ellipse cx="231" cy="914" rx="4" ry="4" style="fill:gray;stroke:gray;"/>
<text text-anchor="middle" x="297" y="872" style="font-family:Courier;font-size:13.33;fill:brown;">Completed</text>
</g>
<g id="node33" class="node"><title>constraintwaitForInput1</title>
<polygon style="fill:white;stroke:gray;" points="1190,829 1078,829 1078,850 1190,850 1190,829"/>
<text text-anchor="middle" x="1134" y="845" style="font-family:Courier;font-size:13.33;">coordination</text>
</g>
<g id="edge36" class="edge"><title>restrictSetInput1-&gt;constraintwaitForInput1</title>
<path style="fill:none;stroke:gray;" d="M913,828C965,830 1032,834 1078,837"/>
<ellipse cx="909" cy="828" rx="4" ry="4" style="fill:gray;stroke:gray;"/>
<text text-anchor="middle" x="1009" y="824" style="font-family:Courier;font-size:13.33;fill:brown;">Completed</text>
</g>
<g id="node36" class="node"><title>constraintwaitForExecution</title>
<polygon style="fill:white;stroke:gray;" points="1726,769 1614,769 1614,790 1726,790 1726,769"/>
<text text-anchor="middle" x="1670" y="785" style="font-family:Courier;font-size:13.33;">coordination</text>
</g>
<g id="edge40" class="edge"><title>restrictRun-&gt;constraintwaitForExecution</title>
<path style="fill:none;stroke:gray;" d="M1482,889C1549,854 1621,810 1653,790"/>
<ellipse cx="1480" cy="890" rx="4" ry="4" style="fill:gray;stroke:gray;"/>
<text text-anchor="middle" x="1545" y="822" style="font-family:Courier;font-size:13.33;fill:brown;">Completed</text>
</g>
<g id="node39" class="node"><title>constraintgetResults</title>
<polygon style="fill:white;stroke:gray;" points="2342,605 2230,605 2230,626 2342,626 2342,605"/>
<text text-anchor="middle" x="2286" y="621" style="font-family:Courier;font-size:13.33;">coordination</text>
</g>
<g id="edge44" class="edge"><title>restrictWait-&gt;constraintgetResults</title>
<path style="fill:none;stroke:gray;" d="M2026,753C2121,708 2226,650 2267,626"/>
<ellipse cx="2024" cy="754" rx="4" ry="4" style="fill:gray;stroke:gray;"/>
<text text-anchor="middle" x="2089" y="693" style="font-family:Courier;font-size:13.33;fill:brown;">Completed</text>
</g>
<g id="edge2" class="edge"><title>restrictGetResults-&gt;compare</title>
<path style="fill:none;stroke:black;" d="M2801,657C2813,661 2813,669 2825,673 2879,689 2911,710 2953,673 3003,626 2946,425 2977,365 2979,360 2982,356 2986,352"/>
<polygon style="fill:black;stroke:black;" points="2985,349 2997,344 2989,354 2985,349"/>
<text text-anchor="middle" x="2889" y="664" style="font-family:Courier;font-size:13.33;">string</text>
</g>
<g id="node42" class="node"><title>constraintcleanup</title>
<polygon style="fill:white;stroke:gray;" points="3101,701 2989,701 2989,722 3101,722 3101,701"/>
<text text-anchor="middle" x="3045" y="717" style="font-family:Courier;font-size:13.33;">coordination</text>
</g>
<g id="edge48" class="edge"><title>restrictGetResults-&gt;constraintcleanup</title>
<path style="fill:none;stroke:gray;" d="M2809,624C2854,624 2907,630 2953,646 2986,657 3018,685 3034,701"/>
<ellipse cx="2805" cy="624" rx="4" ry="4" style="fill:gray;stroke:gray;"/>
<text text-anchor="middle" x="2889" y="617" style="font-family:Courier;font-size:13.33;fill:brown;">Completed</text>
</g>
<g id="node12" class="node"><title>WORKFLOWINTERNALSOURCE_snplist</title>
<polygon style="fill:skyblue;stroke:black;" points="462,465 529,421 396,421 462,465"/>
<text text-anchor="middle" x="462" y="441" style="font-family:Courier;font-size:13.33;">snplist</text>
</g>
<g id="edge6" class="edge"><title>WORKFLOWINTERNALSOURCE_snplist-&gt;create_mutant_sequence</title>
<path style="fill:none;stroke:black;" d="M506,436C559,436 645,436 701,436"/>
<polygon style="fill:black;stroke:black;" points="702,432 715,436 702,438 702,432"/>
<text text-anchor="middle" x="627" y="430" style="font-family:Courier;font-size:13.33;">String</text>
</g>
<g id="node14" class="node"><title>WORKFLOWINTERNALSOURCE_sequence</title>
<polygon style="fill:skyblue;stroke:black;" points="462,548 538,504 386,504 462,548"/>
<text text-anchor="middle" x="462" y="524" style="font-family:Courier;font-size:13.33;">sequence</text>
</g>
<g id="edge8" class="edge"><title>WORKFLOWINTERNALSOURCE_sequence-&gt;create_mutant_sequence</title>
<path style="fill:none;stroke:black;" d="M537,505C582,496 642,481 691,462 693,461 727,442 741,434"/>
<polygon style="fill:black;stroke:black;" points="739,432 751,425 743,436 739,432"/>
<text text-anchor="middle" x="627" y="457" style="font-family:Courier;font-size:13.33;">string</text>
</g>
<g id="edge16" class="edge"><title>WORKFLOWINTERNALSOURCE_sequence-&gt;restrictSetInput1</title>
<path style="fill:none;stroke:black;" d="M502,525C518,529 537,536 550,548 578,568 687,790 715,810 722,814 730,818 738,820"/>
<polygon style="fill:black;stroke:black;" points="739,817 751,822 738,822 739,817"/>
<text text-anchor="middle" x="627" y="552" style="font-family:Courier;font-size:13.33;">string</text>
</g>
<g id="edge30" class="edge"><title>constrainttestcoordination-&gt;compare</title>
<path style="fill:none;stroke:gray;" d="M2751,300C2810,306 2903,316 2969,324"/>
<ellipse cx="2973" cy="325" rx="4" ry="4" style="fill:none;stroke:gray;"/>
<text text-anchor="middle" x="2889" y="289" style="font-family:Courier;font-size:13.33;fill:darkgreen;">from:Scheduled</text>
<text text-anchor="middle" x="2889" y="305" style="font-family:Courier;font-size:13.33;fill:darkgreen;">to:Running</text>
</g>
<g id="edge34" class="edge"><title>constraintsetInput1-&gt;restrictSetInput1</title>
<path style="fill:none;stroke:gray;" d="M518,837C578,834 673,830 741,828"/>
<ellipse cx="746" cy="828" rx="4" ry="4" style="fill:none;stroke:gray;"/>
<text text-anchor="middle" x="627" y="808" style="font-family:Courier;font-size:13.33;fill:darkgreen;">from:Scheduled</text>
<text text-anchor="middle" x="627" y="824" style="font-family:Courier;font-size:13.33;fill:darkgreen;">to:Running</text>
</g>
<g id="edge38" class="edge"><title>constraintwaitForInput1-&gt;restrictRun</title>
<path style="fill:none;stroke:gray;" d="M1174,850C1222,864 1304,885 1358,900"/>
<ellipse cx="1362" cy="901" rx="4" ry="4" style="fill:none;stroke:gray;"/>
<text text-anchor="middle" x="1278" y="840" style="font-family:Courier;font-size:13.33;fill:darkgreen;">from:Scheduled</text>
<text text-anchor="middle" x="1278" y="856" style="font-family:Courier;font-size:13.33;fill:darkgreen;">to:Running</text>
</g>
<g id="edge42" class="edge"><title>constraintwaitForExecution-&gt;restrictWait</title>
<path style="fill:none;stroke:gray;" d="M1726,780C1774,780 1842,780 1893,780"/>
<ellipse cx="1898" cy="780" rx="4" ry="4" style="fill:none;stroke:gray;"/>
<text text-anchor="middle" x="1814" y="758" style="font-family:Courier;font-size:13.33;fill:darkgreen;">from:Scheduled</text>
<text text-anchor="middle" x="1814" y="774" style="font-family:Courier;font-size:13.33;fill:darkgreen;">to:Running</text>
</g>
<g id="edge46" class="edge"><title>constraintgetResults-&gt;restrictGetResults</title>
<path style="fill:none;stroke:gray;" d="M2342,618C2403,621 2505,625 2582,629"/>
<ellipse cx="2586" cy="629" rx="4" ry="4" style="fill:none;stroke:gray;"/>
<text text-anchor="middle" x="2502" y="600" style="font-family:Courier;font-size:13.33;fill:darkgreen;">from:Scheduled</text>
<text text-anchor="middle" x="2502" y="616" style="font-family:Courier;font-size:13.33;fill:darkgreen;">to:Running</text>
</g>
<g id="edge50" class="edge"><title>constraintcleanup-&gt;restrictDeleteJob</title>
<path style="fill:none;stroke:gray;" d="M3050,722C3074,764 3161,910 3275,982 3278,984 3281,985 3283,986"/>
<ellipse cx="3286" cy="988" rx="4" ry="4" style="fill:none;stroke:gray;"/>
<text text-anchor="middle" x="3201" y="828" style="font-family:Courier;font-size:13.33;fill:darkgreen;">from:Scheduled</text>
<text text-anchor="middle" x="3201" y="844" style="font-family:Courier;font-size:13.33;fill:darkgreen;">to:Running</text>
</g>
</g></svg>
